<svg width="1200" height="220" viewBox="0 0 1200 220" xmlns="http://www.w3.org/2000/svg">
  <defs>
    <linearGradient id="sky" x1="0%" y1="0%" x2="0%" y2="100%">
      <stop offset="0%" style="stop-color:#a8edff;stop-opacity:1" />
      <stop offset="100%" style="stop-color:#e0f7ff;stop-opacity:1" />
    </linearGradient>
    <linearGradient id="ground" x1="0%" y1="0%" x2="0%" y2="100%">
      <stop offset="0%" style="stop-color:#0077b6;stop-opacity:1" />
      <stop offset="100%" style="stop-color:#00b4d8;stop-opacity:1" />
    </linearGradient>
  </defs>

  <!-- Sky background -->
  <rect width="1200" height="220" fill="url(#sky)"/>

  <!-- Stars -->
  <circle cx="100" cy="20" r="2" fill="white" opacity="0.8"/>
  <circle cx="200" cy="35" r="1.5" fill="white" opacity="0.6"/>
  <circle cx="350" cy="15" r="2" fill="white" opacity="0.7"/>
  <circle cx="500" cy="25" r="1.5" fill="white" opacity="0.5"/>
  <circle cx="700" cy="18" r="2" fill="white" opacity="0.8"/>
  <circle cx="900" cy="30" r="1.5" fill="white" opacity="0.6"/>
  <circle cx="1050" cy="12" r="2" fill="white" opacity="0.7"/>
  <circle cx="1150" cy="28" r="1.5" fill="white" opacity="0.5"/>

  <!-- Pixel Cloud 1 (left) -->
  <rect x="60" y="40" width="16" height="16" fill="white" opacity="0.95"/>
  <rect x="76" y="40" width="16" height="16" fill="white" opacity="0.95"/>
  <rect x="92" y="40" width="16" height="16" fill="white" opacity="0.95"/>
  <rect x="44" y="56" width="16" height="16" fill="white" opacity="0.95"/>
  <rect x="60" y="56" width="16" height="16" fill="white" opacity="0.95"/>
  <rect x="76" y="56" width="16" height="16" fill="white" opacity="0.95"/>
  <rect x="92" y="56" width="16" height="16" fill="white" opacity="0.95"/>
  <rect x="108" y="56" width="16" height="16" fill="white" opacity="0.95"/>
  <rect x="60" y="72" width="16" height="16" fill="white" opacity="0.95"/>
  <rect x="76" y="72" width="16" height="16" fill="white" opacity="0.95"/>
  <rect x="92" y="72" width="16" height="16" fill="white" opacity="0.95"/>

  <!-- Pixel Cloud 2 (right) -->
  <rect x="1000" y="30" width="16" height="16" fill="white" opacity="0.95"/>
  <rect x="1016" y="30" width="16" height="16" fill="white" opacity="0.95"/>
  <rect x="1032" y="30" width="16" height="16" fill="white" opacity="0.95"/>
  <rect x="984" y="46" width="16" height="16" fill="white" opacity="0.95"/>
  <rect x="1000" y="46" width="16" height="16" fill="white" opacity="0.95"/>
  <rect x="1016" y="46" width="16" height="16" fill="white" opacity="0.95"/>
  <rect x="1032" y="46" width="16" height="16" fill="white" opacity="0.95"/>
  <rect x="1048" y="46" width="16" height="16" fill="white" opacity="0.95"/>
  <rect x="1000" y="62" width="16" height="16" fill="white" opacity="0.95"/>
  <rect x="1016" y="62" width="16" height="16" fill="white" opacity="0.95"/>
  <rect x="1032" y="62" width="16" height="16" fill="white" opacity="0.95"/>

  <!-- Small cloud center top -->
  <rect x="550" y="20" width="12" height="12" fill="white" opacity="0.8"/>
  <rect x="562" y="20" width="12" height="12" fill="white" opacity="0.8"/>
  <rect x="574" y="20" width="12" height="12" fill="white" opacity="0.8"/>
  <rect x="538" y="32" width="12" height="12" fill="white" opacity="0.8"/>
  <rect x="550" y="32" width="12" height="12" fill="white" opacity="0.8"/>
  <rect x="562" y="32" width="12" height="12" fill="white" opacity="0.8"/>
  <rect x="574" y="32" width="12" height="12" fill="white" opacity="0.8"/>
  <rect x="586" y="32" width="12" height="12" fill="white" opacity="0.8"/>

  <!-- Pixel Castle left -->
  <!-- Towers -->
  <rect x="180" y="110" width="20" height="60" fill="#9b5de5"/>
  <rect x="240" y="120" width="20" height="50" fill="#9b5de5"/>
  <!-- Tower tops (battlements) -->
  <rect x="178" y="102" width="8" height="10" fill="#7b2fbe"/>
  <rect x="190" y="102" width="8" height="10" fill="#7b2fbe"/>
  <rect x="238" y="112" width="8" height="10" fill="#7b2fbe"/>
  <rect x="250" y="112" width="8" height="10" fill="#7b2fbe"/>
  <!-- Castle body -->
  <rect x="196" y="130" width="48" height="40" fill="#b57bee"/>
  <!-- Door -->
  <rect x="214" y="148" width="12" height="22" fill="#4a1880" rx="2"/>
  <!-- Windows -->
  <rect x="200" y="136" width="8" height="8" fill="#e0aaff"/>
  <rect x="232" y="136" width="8" height="8" fill="#e0aaff"/>
  <!-- Flag -->
  <rect x="188" y="88" width="2" height="16" fill="#555"/>
  <rect x="190" y="88" width="12" height="8" fill="#ff6b9d"/>

  <!-- Pixel Castle right -->
  <rect x="940" y="110" width="20" height="60" fill="#9b5de5"/>
  <rect x="1000" y="120" width="20" height="50" fill="#9b5de5"/>
  <rect x="938" y="102" width="8" height="10" fill="#7b2fbe"/>
  <rect x="950" y="102" width="8" height="10" fill="#7b2fbe"/>
  <rect x="998" y="112" width="8" height="10" fill="#7b2fbe"/>
  <rect x="1010" y="112" width="8" height="10" fill="#7b2fbe"/>
  <rect x="956" y="130" width="48" height="40" fill="#b57bee"/>
  <rect x="974" y="148" width="12" height="22" fill="#4a1880" rx="2"/>
  <rect x="960" y="136" width="8" height="8" fill="#e0aaff"/>
  <rect x="992" y="136" width="8" height="8" fill="#e0aaff"/>
  <rect x="948" y="88" width="2" height="16" fill="#555"/>
  <rect x="950" y="88" width="12" height="8" fill="#ff6b9d"/>

  <!-- Little pixel flowers on ground -->
  <rect x="310" y="162" width="6" height="6" fill="#ff6b9d"/>
  <rect x="320" y="165" width="6" height="6" fill="#ffb3c6"/>
  <rect x="870" y="162" width="6" height="6" fill="#ff6b9d"/>
  <rect x="880" y="165" width="6" height="6" fill="#ffb3c6"/>
  <rect x="400" y="160" width="6" height="6" fill="#c77dff"/>
  <rect x="800" y="160" width="6" height="6" fill="#c77dff"/>

  <!-- Pixel stars/sparkles -->
  <text x="300" y="80" font-size="16" fill="#ffd6ff" opacity="0.8">✦</text>
  <text x="850" y="70" font-size="16" fill="#ffd6ff" opacity="0.8">✦</text>
  <text x="450" y="55" font-size="12" fill="#ffd6ff" opacity="0.7">✦</text>
  <text x="730" y="60" font-size="12" fill="#ffd6ff" opacity="0.7">✦</text>

  <!-- Main name text -->
  <text x="600" y="105" font-family="'Georgia', serif" font-size="42" font-weight="bold" fill="#1a0533" text-anchor="middle" letter-spacing="2">Subhashree Behera</text>
  <!-- Brand text -->
  <text x="600" y="145" font-family="'Courier New', monospace" font-size="20" fill="#7b2fbe" text-anchor="middle" letter-spacing="6">✨ SweetyCodes ✨</text>

  <!-- Ground wave -->
  <path d="M0,175 C200,160 400,185 600,170 C800,155 1000,180 1200,170 L1200,220 L0,220 Z" fill="url(#ground)"/>
</svg>
